<mxfile host="Electron" modified="2023-10-04T04:05:44.142Z" agent="Mozilla/5.0 (Windows NT 10.0; Win64; x64) AppleWebKit/537.36 (KHTML, like Gecko) draw.io/22.0.2 Chrome/114.0.5735.289 Electron/25.8.4 Safari/537.36" etag="DLAMIOe4pGB_AxNXOT3b" version="22.0.2" type="device">
  <diagram name="Page-1" id="c4acf3e9-155e-7222-9cf6-157b1a14988f">
    <mxGraphModel dx="5531" dy="4549" grid="1" gridSize="10" guides="1" tooltips="1" connect="1" arrows="1" fold="1" page="1" pageScale="1" pageWidth="1169" pageHeight="1654" background="none" math="0" shadow="0">
      <root>
        <mxCell id="0" />
        <mxCell id="1" parent="0" />
        <mxCell id="DJ6YM_CZNNagd6zpl_L4-29" value="&lt;h1&gt;&lt;b&gt;&lt;u&gt;Type&lt;/u&gt;&lt;/b&gt;&lt;/h1&gt;" style="rounded=0;whiteSpace=wrap;html=1;fillColor=none;verticalAlign=top;" parent="1" vertex="1">
          <mxGeometry x="-2750.2" y="-2790" width="280" height="400" as="geometry" />
        </mxCell>
        <mxCell id="DJ6YM_CZNNagd6zpl_L4-30" value="&lt;h1&gt;&lt;b&gt;&lt;u&gt;Category&lt;/u&gt;&lt;/b&gt;&lt;/h1&gt;" style="rounded=0;whiteSpace=wrap;html=1;fillColor=none;verticalAlign=top;" parent="1" vertex="1">
          <mxGeometry x="-3370.2" y="-2530" width="490" height="270" as="geometry" />
        </mxCell>
        <mxCell id="DJ6YM_CZNNagd6zpl_L4-96" style="edgeStyle=orthogonalEdgeStyle;rounded=0;orthogonalLoop=1;jettySize=auto;html=1;entryX=0;entryY=0.5;entryDx=0;entryDy=0;" parent="1" source="DJ6YM_CZNNagd6zpl_L4-83" edge="1">
          <mxGeometry relative="1" as="geometry" />
        </mxCell>
        <mxCell id="5d2195bd80daf111-15" value="&lt;p style=&quot;margin:0px;margin-top:4px;text-align:center;&quot;&gt;&lt;b&gt;Serial&lt;/b&gt;&lt;/p&gt;&lt;hr size=&quot;1&quot;&gt;&lt;p style=&quot;margin:0px;margin-left:4px;&quot;&gt;+ field1: Type&lt;br&gt;+ field2: Type&lt;/p&gt;&lt;hr size=&quot;1&quot;&gt;&lt;p style=&quot;margin:0px;margin-left:4px;&quot;&gt;+ method1(Type): Type&lt;br&gt;+ method2(Type, Type): Type&lt;/p&gt;" style="verticalAlign=top;align=left;overflow=fill;fontSize=12;fontFamily=Helvetica;html=1;rounded=0;shadow=0;comic=0;labelBackgroundColor=none;strokeWidth=1" parent="1" vertex="1">
          <mxGeometry x="-2705.2" y="-2560" width="190" height="140" as="geometry" />
        </mxCell>
        <mxCell id="DJ6YM_CZNNagd6zpl_L4-17" style="edgeStyle=orthogonalEdgeStyle;rounded=0;orthogonalLoop=1;jettySize=auto;html=1;entryX=0;entryY=0.5;entryDx=0;entryDy=0;exitX=1;exitY=0.285;exitDx=0;exitDy=0;exitPerimeter=0;" parent="1" source="5d2195bd80daf111-18" target="DJ6YM_CZNNagd6zpl_L4-29" edge="1">
          <mxGeometry relative="1" as="geometry" />
        </mxCell>
        <mxCell id="LBKzw_JlbSK5Q4wUVQRv-9" value="Type" style="edgeLabel;html=1;align=center;verticalAlign=middle;resizable=0;points=[];rotation=0;" parent="DJ6YM_CZNNagd6zpl_L4-17" vertex="1" connectable="0">
          <mxGeometry x="0.494" y="-2" relative="1" as="geometry">
            <mxPoint x="37" as="offset" />
          </mxGeometry>
        </mxCell>
        <mxCell id="DJ6YM_CZNNagd6zpl_L4-32" style="edgeStyle=orthogonalEdgeStyle;rounded=0;orthogonalLoop=1;jettySize=auto;html=1;entryX=0.5;entryY=1;entryDx=0;entryDy=0;exitX=0.5;exitY=0;exitDx=0;exitDy=0;" parent="1" source="5d2195bd80daf111-18" target="DJ6YM_CZNNagd6zpl_L4-10" edge="1">
          <mxGeometry relative="1" as="geometry">
            <mxPoint x="-2910.2" y="-1800" as="sourcePoint" />
          </mxGeometry>
        </mxCell>
        <mxCell id="LBKzw_JlbSK5Q4wUVQRv-2" value="Story" style="edgeLabel;html=1;align=center;verticalAlign=middle;resizable=0;points=[];rotation=-90;" parent="DJ6YM_CZNNagd6zpl_L4-32" vertex="1" connectable="0">
          <mxGeometry x="0.0333" y="2" relative="1" as="geometry">
            <mxPoint as="offset" />
          </mxGeometry>
        </mxCell>
        <mxCell id="5d2195bd80daf111-19" value="&lt;p style=&quot;margin:0px;margin-top:4px;text-align:center;&quot;&gt;&lt;b&gt;Series&lt;/b&gt;&lt;/p&gt;&lt;hr size=&quot;1&quot;&gt;&lt;p style=&quot;margin:0px;margin-left:4px;&quot;&gt;+ title: String&lt;br&gt;+ field2: Type&lt;/p&gt;&lt;hr size=&quot;1&quot;&gt;&lt;p style=&quot;margin:0px;margin-left:4px;&quot;&gt;+ method1(Type): Type&lt;br&gt;+ method2(Type, Type): Type&lt;/p&gt;" style="verticalAlign=top;align=left;overflow=fill;fontSize=12;fontFamily=Helvetica;html=1;rounded=0;shadow=0;comic=0;labelBackgroundColor=none;strokeWidth=1" parent="1" vertex="1">
          <mxGeometry x="-2705.2" y="-2730" width="190" height="140" as="geometry" />
        </mxCell>
        <mxCell id="DJ6YM_CZNNagd6zpl_L4-10" value="&lt;p style=&quot;margin:0px;margin-top:4px;text-align:center;&quot;&gt;&lt;b&gt;Chapter&lt;/b&gt;&lt;/p&gt;&lt;hr size=&quot;1&quot;&gt;&lt;p style=&quot;margin:0px;margin-left:4px;&quot;&gt;+ title: String&lt;br&gt;+ chapter_num: Int&lt;/p&gt;&lt;p style=&quot;margin:0px;margin-left:4px;&quot;&gt;+ view: String&lt;br&gt;&lt;/p&gt;&lt;p style=&quot;margin:0px;margin-left:4px;&quot;&gt;+ story: String&lt;/p&gt;&lt;p style=&quot;margin:0px;margin-left:4px;&quot;&gt;+ c_u_id: Int&lt;/p&gt;&lt;p style=&quot;margin:0px;margin-left:4px;&quot;&gt;+ reviews: Type&lt;/p&gt;&lt;hr size=&quot;1&quot;&gt;&lt;p style=&quot;margin:0px;margin-left:4px;&quot;&gt;+ method1(Type): Type&lt;br&gt;+ method2(Type, Type): Type&lt;/p&gt;" style="verticalAlign=top;align=left;overflow=fill;fontSize=12;fontFamily=Helvetica;html=1;rounded=0;shadow=0;comic=0;labelBackgroundColor=none;strokeWidth=1" parent="1" vertex="1">
          <mxGeometry x="-3410.2" y="-3180" width="190" height="170" as="geometry" />
        </mxCell>
        <mxCell id="DJ6YM_CZNNagd6zpl_L4-34" style="edgeStyle=orthogonalEdgeStyle;rounded=0;orthogonalLoop=1;jettySize=auto;html=1;exitX=0;exitY=0.5;exitDx=0;exitDy=0;entryX=1;entryY=0.5;entryDx=0;entryDy=0;startArrow=none;startFill=0;endArrow=classic;endFill=1;" parent="1" source="DJ6YM_CZNNagd6zpl_L4-11" target="DJ6YM_CZNNagd6zpl_L4-10" edge="1">
          <mxGeometry relative="1" as="geometry">
            <mxPoint x="-1850.2" y="-1290" as="targetPoint" />
          </mxGeometry>
        </mxCell>
        <mxCell id="LBKzw_JlbSK5Q4wUVQRv-3" value="View" style="edgeLabel;html=1;align=center;verticalAlign=middle;resizable=0;points=[];" parent="DJ6YM_CZNNagd6zpl_L4-34" vertex="1" connectable="0">
          <mxGeometry x="0.6703" y="-1" relative="1" as="geometry">
            <mxPoint as="offset" />
          </mxGeometry>
        </mxCell>
        <mxCell id="DJ6YM_CZNNagd6zpl_L4-97" style="edgeStyle=orthogonalEdgeStyle;rounded=0;orthogonalLoop=1;jettySize=auto;html=1;exitX=1;exitY=0.5;exitDx=0;exitDy=0;entryX=0;entryY=0.5;entryDx=0;entryDy=0;" parent="1" source="DJ6YM_CZNNagd6zpl_L4-11" target="DJ6YM_CZNNagd6zpl_L4-38" edge="1">
          <mxGeometry relative="1" as="geometry" />
        </mxCell>
        <mxCell id="LBKzw_JlbSK5Q4wUVQRv-1" value="ViewTypes" style="edgeLabel;html=1;align=center;verticalAlign=middle;resizable=0;points=[];rotation=0;" parent="DJ6YM_CZNNagd6zpl_L4-97" vertex="1" connectable="0">
          <mxGeometry x="0.3976" y="2" relative="1" as="geometry">
            <mxPoint x="-35" y="2" as="offset" />
          </mxGeometry>
        </mxCell>
        <mxCell id="DJ6YM_CZNNagd6zpl_L4-23" value="&lt;p style=&quot;margin:0px;margin-top:4px;text-align:center;&quot;&gt;&lt;b&gt;Fanfiction&lt;/b&gt;&lt;/p&gt;&lt;hr size=&quot;1&quot;&gt;&lt;p style=&quot;margin:0px;margin-left:4px;&quot;&gt;+ field1: Type&lt;br&gt;+ field2: Type&lt;/p&gt;&lt;hr size=&quot;1&quot;&gt;&lt;p style=&quot;margin:0px;margin-left:4px;&quot;&gt;+ method1(Type): Type&lt;br&gt;+ method2(Type, Type): Type&lt;/p&gt;" style="verticalAlign=top;align=left;overflow=fill;fontSize=12;fontFamily=Helvetica;html=1;rounded=0;shadow=0;comic=0;labelBackgroundColor=none;strokeWidth=1;fillColor=#18141D;" parent="1" vertex="1">
          <mxGeometry x="-3110.2" y="-2454.96" width="190" height="140" as="geometry" />
        </mxCell>
        <mxCell id="DJ6YM_CZNNagd6zpl_L4-25" value="&lt;p style=&quot;margin:0px;margin-top:4px;text-align:center;&quot;&gt;&lt;b&gt;Original&lt;/b&gt;&lt;/p&gt;&lt;hr size=&quot;1&quot;&gt;&lt;p style=&quot;margin:0px;margin-left:4px;&quot;&gt;+ field1: Type&lt;br&gt;+ field2: Type&lt;/p&gt;&lt;hr size=&quot;1&quot;&gt;&lt;p style=&quot;margin:0px;margin-left:4px;&quot;&gt;+ method1(Type): Type&lt;br&gt;+ method2(Type, Type): Type&lt;/p&gt;" style="verticalAlign=top;align=left;overflow=fill;fontSize=12;fontFamily=Helvetica;html=1;rounded=0;shadow=0;comic=0;labelBackgroundColor=none;strokeWidth=1" parent="1" vertex="1">
          <mxGeometry x="-3330.2" y="-2454.96" width="190" height="140" as="geometry" />
        </mxCell>
        <mxCell id="DJ6YM_CZNNagd6zpl_L4-35" value="View Types" style="swimlane;fontStyle=0;childLayout=stackLayout;horizontal=1;startSize=30;horizontalStack=0;resizeParent=1;resizeParentMax=0;resizeLast=0;collapsible=1;marginBottom=0;whiteSpace=wrap;html=1;fillColor=#18141D;fillStyle=solid;" parent="1" vertex="1">
          <mxGeometry x="-2300.2" y="-3112.5" width="140" height="180" as="geometry">
            <mxRectangle x="940" y="-440" width="60" height="30" as="alternateBounds" />
          </mxGeometry>
        </mxCell>
        <mxCell id="DJ6YM_CZNNagd6zpl_L4-36" value="Public" style="text;strokeColor=none;fillColor=default;align=left;verticalAlign=middle;spacingLeft=4;spacingRight=4;overflow=hidden;points=[[0,0.5],[1,0.5]];portConstraint=eastwest;rotatable=0;whiteSpace=wrap;html=1;" parent="DJ6YM_CZNNagd6zpl_L4-35" vertex="1">
          <mxGeometry y="30" width="140" height="30" as="geometry" />
        </mxCell>
        <mxCell id="DJ6YM_CZNNagd6zpl_L4-37" value="Password Protected" style="text;strokeColor=none;fillColor=default;align=left;verticalAlign=middle;spacingLeft=4;spacingRight=4;overflow=hidden;points=[[0,0.5],[1,0.5]];portConstraint=eastwest;rotatable=0;whiteSpace=wrap;html=1;" parent="DJ6YM_CZNNagd6zpl_L4-35" vertex="1">
          <mxGeometry y="60" width="140" height="30" as="geometry" />
        </mxCell>
        <mxCell id="DJ6YM_CZNNagd6zpl_L4-38" value="Patreon" style="text;strokeColor=none;fillColor=default;align=left;verticalAlign=middle;spacingLeft=4;spacingRight=4;overflow=hidden;points=[[0,0.5],[1,0.5]];portConstraint=eastwest;rotatable=0;whiteSpace=wrap;html=1;" parent="DJ6YM_CZNNagd6zpl_L4-35" vertex="1">
          <mxGeometry y="90" width="140" height="30" as="geometry" />
        </mxCell>
        <mxCell id="DJ6YM_CZNNagd6zpl_L4-39" value="Role Only" style="text;strokeColor=none;fillColor=default;align=left;verticalAlign=middle;spacingLeft=4;spacingRight=4;overflow=hidden;points=[[0,0.5],[1,0.5]];portConstraint=eastwest;rotatable=0;whiteSpace=wrap;html=1;" parent="DJ6YM_CZNNagd6zpl_L4-35" vertex="1">
          <mxGeometry y="120" width="140" height="30" as="geometry" />
        </mxCell>
        <mxCell id="DJ6YM_CZNNagd6zpl_L4-40" value="Author Only" style="text;strokeColor=none;fillColor=default;align=left;verticalAlign=middle;spacingLeft=4;spacingRight=4;overflow=hidden;points=[[0,0.5],[1,0.5]];portConstraint=eastwest;rotatable=0;whiteSpace=wrap;html=1;" parent="DJ6YM_CZNNagd6zpl_L4-35" vertex="1">
          <mxGeometry y="150" width="140" height="30" as="geometry" />
        </mxCell>
        <mxCell id="DJ6YM_CZNNagd6zpl_L4-41" value="Public" style="swimlane;fontStyle=0;childLayout=stackLayout;horizontal=1;startSize=30;horizontalStack=0;resizeParent=1;resizeParentMax=0;resizeLast=0;collapsible=1;marginBottom=0;whiteSpace=wrap;html=1;fillColor=#18141D;fillStyle=solid;" parent="1" vertex="1">
          <mxGeometry x="-1980.2" y="-3200" width="140" height="60" as="geometry" />
        </mxCell>
        <mxCell id="DJ6YM_CZNNagd6zpl_L4-42" value="Anyone can view" style="text;strokeColor=none;fillColor=none;align=left;verticalAlign=middle;spacingLeft=4;spacingRight=4;overflow=hidden;points=[[0,0.5],[1,0.5]];portConstraint=eastwest;rotatable=0;whiteSpace=wrap;html=1;" parent="DJ6YM_CZNNagd6zpl_L4-41" vertex="1">
          <mxGeometry y="30" width="140" height="30" as="geometry" />
        </mxCell>
        <mxCell id="DJ6YM_CZNNagd6zpl_L4-45" value="Password" style="swimlane;fontStyle=0;childLayout=stackLayout;horizontal=1;startSize=30;horizontalStack=0;resizeParent=1;resizeParentMax=0;resizeLast=0;collapsible=1;marginBottom=0;whiteSpace=wrap;html=1;" parent="1" vertex="1">
          <mxGeometry x="-1980.2" y="-3130" width="140" height="70" as="geometry" />
        </mxCell>
        <mxCell id="DJ6YM_CZNNagd6zpl_L4-46" value="Anyone with the password can view" style="text;strokeColor=none;fillColor=#18141D;align=left;verticalAlign=middle;spacingLeft=4;spacingRight=4;overflow=hidden;points=[[0,0.5],[1,0.5]];portConstraint=eastwest;rotatable=0;whiteSpace=wrap;html=1;fillStyle=solid;" parent="DJ6YM_CZNNagd6zpl_L4-45" vertex="1">
          <mxGeometry y="30" width="140" height="40" as="geometry" />
        </mxCell>
        <mxCell id="DJ6YM_CZNNagd6zpl_L4-47" style="edgeStyle=orthogonalEdgeStyle;rounded=0;orthogonalLoop=1;jettySize=auto;html=1;entryX=0;entryY=0.5;entryDx=0;entryDy=0;exitX=1;exitY=0.5;exitDx=0;exitDy=0;" parent="1" source="DJ6YM_CZNNagd6zpl_L4-36" target="DJ6YM_CZNNagd6zpl_L4-42" edge="1">
          <mxGeometry relative="1" as="geometry">
            <Array as="points">
              <mxPoint x="-2090.2" y="-3068" />
              <mxPoint x="-2090.2" y="-3155" />
            </Array>
          </mxGeometry>
        </mxCell>
        <mxCell id="DJ6YM_CZNNagd6zpl_L4-48" style="edgeStyle=orthogonalEdgeStyle;rounded=0;orthogonalLoop=1;jettySize=auto;html=1;entryX=0;entryY=0.5;entryDx=0;entryDy=0;exitX=1;exitY=0.5;exitDx=0;exitDy=0;" parent="1" source="DJ6YM_CZNNagd6zpl_L4-37" target="DJ6YM_CZNNagd6zpl_L4-46" edge="1">
          <mxGeometry relative="1" as="geometry" />
        </mxCell>
        <mxCell id="DJ6YM_CZNNagd6zpl_L4-55" value="Special Contributer" style="swimlane;fontStyle=0;childLayout=stackLayout;horizontal=1;startSize=30;horizontalStack=0;resizeParent=1;resizeParentMax=0;resizeLast=0;collapsible=1;marginBottom=0;whiteSpace=wrap;html=1;" parent="1" vertex="1">
          <mxGeometry x="-1980.2" y="-2692.5" width="160" height="60" as="geometry" />
        </mxCell>
        <mxCell id="DJ6YM_CZNNagd6zpl_L4-56" value="View All Available To Role" style="text;strokeColor=none;fillColor=#18141D;align=left;verticalAlign=middle;spacingLeft=4;spacingRight=4;overflow=hidden;points=[[0,0.5],[1,0.5]];portConstraint=eastwest;rotatable=0;whiteSpace=wrap;html=1;fillStyle=solid;" parent="DJ6YM_CZNNagd6zpl_L4-55" vertex="1">
          <mxGeometry y="30" width="160" height="30" as="geometry" />
        </mxCell>
        <mxCell id="DJ6YM_CZNNagd6zpl_L4-116" style="edgeStyle=orthogonalEdgeStyle;rounded=0;orthogonalLoop=1;jettySize=auto;html=1;entryX=0;entryY=0.5;entryDx=0;entryDy=0;exitX=0.5;exitY=0;exitDx=0;exitDy=0;" parent="1" source="DJ6YM_CZNNagd6zpl_L4-69" target="DJ6YM_CZNNagd6zpl_L4-39" edge="1">
          <mxGeometry relative="1" as="geometry" />
        </mxCell>
        <mxCell id="LBKzw_JlbSK5Q4wUVQRv-13" style="edgeStyle=orthogonalEdgeStyle;rounded=0;orthogonalLoop=1;jettySize=auto;html=1;entryX=1;entryY=0.75;entryDx=0;entryDy=0;startArrow=classic;startFill=1;endArrow=none;endFill=0;" parent="1" source="DJ6YM_CZNNagd6zpl_L4-77" target="DJ6YM_CZNNagd6zpl_L4-69" edge="1">
          <mxGeometry relative="1" as="geometry">
            <mxPoint x="-2230.2000000000003" y="-2530" as="targetPoint" />
            <Array as="points">
              <mxPoint x="-2140.2" y="-2413" />
              <mxPoint x="-2140.2" y="-2597" />
            </Array>
          </mxGeometry>
        </mxCell>
        <mxCell id="LBKzw_JlbSK5Q4wUVQRv-82" value="" style="edgeStyle=orthogonalEdgeStyle;rounded=0;orthogonalLoop=1;jettySize=auto;html=1;" parent="1" source="DJ6YM_CZNNagd6zpl_L4-77" target="LBKzw_JlbSK5Q4wUVQRv-81" edge="1">
          <mxGeometry relative="1" as="geometry" />
        </mxCell>
        <mxCell id="DJ6YM_CZNNagd6zpl_L4-77" value="AuthorPerms" style="swimlane;fontStyle=0;childLayout=stackLayout;horizontal=1;startSize=30;horizontalStack=0;resizeParent=1;resizeParentMax=0;resizeLast=0;collapsible=1;marginBottom=0;whiteSpace=wrap;html=1;fillColor=#18141D;fillStyle=solid;" parent="1" vertex="1">
          <mxGeometry x="-1980.2" y="-2502.5" width="160" height="210" as="geometry" />
        </mxCell>
        <mxCell id="DJ6YM_CZNNagd6zpl_L4-78" value="View All" style="text;strokeColor=none;fillColor=default;align=left;verticalAlign=middle;spacingLeft=4;spacingRight=4;overflow=hidden;points=[[0,0.5],[1,0.5]];portConstraint=eastwest;rotatable=0;whiteSpace=wrap;html=1;fillStyle=solid;" parent="DJ6YM_CZNNagd6zpl_L4-77" vertex="1">
          <mxGeometry y="30" width="160" height="30" as="geometry" />
        </mxCell>
        <mxCell id="DJ6YM_CZNNagd6zpl_L4-79" value="Edit All" style="text;strokeColor=none;fillColor=default;align=left;verticalAlign=middle;spacingLeft=4;spacingRight=4;overflow=hidden;points=[[0,0.5],[1,0.5]];portConstraint=eastwest;rotatable=0;whiteSpace=wrap;html=1;" parent="DJ6YM_CZNNagd6zpl_L4-77" vertex="1">
          <mxGeometry y="60" width="160" height="30" as="geometry" />
        </mxCell>
        <mxCell id="DJ6YM_CZNNagd6zpl_L4-80" value="Change Status All" style="text;strokeColor=none;fillColor=default;align=left;verticalAlign=middle;spacingLeft=4;spacingRight=4;overflow=hidden;points=[[0,0.5],[1,0.5]];portConstraint=eastwest;rotatable=0;whiteSpace=wrap;html=1;" parent="DJ6YM_CZNNagd6zpl_L4-77" vertex="1">
          <mxGeometry y="90" width="160" height="30" as="geometry" />
        </mxCell>
        <mxCell id="DJ6YM_CZNNagd6zpl_L4-81" value="Delete All" style="text;strokeColor=none;fillColor=default;align=left;verticalAlign=middle;spacingLeft=4;spacingRight=4;overflow=hidden;points=[[0,0.5],[1,0.5]];portConstraint=eastwest;rotatable=0;whiteSpace=wrap;html=1;" parent="DJ6YM_CZNNagd6zpl_L4-77" vertex="1">
          <mxGeometry y="120" width="160" height="30" as="geometry" />
        </mxCell>
        <mxCell id="DJ6YM_CZNNagd6zpl_L4-89" value="Manage Roles up to Editor" style="text;strokeColor=none;fillColor=default;align=left;verticalAlign=middle;spacingLeft=4;spacingRight=4;overflow=hidden;points=[[0,0.5],[1,0.5]];portConstraint=eastwest;rotatable=0;whiteSpace=wrap;html=1;" parent="DJ6YM_CZNNagd6zpl_L4-77" vertex="1">
          <mxGeometry y="150" width="160" height="30" as="geometry" />
        </mxCell>
        <mxCell id="a-bXBp3ErzStBLWRxPki-16" value="Post Stories" style="text;strokeColor=none;fillColor=default;align=left;verticalAlign=middle;spacingLeft=4;spacingRight=4;overflow=hidden;points=[[0,0.5],[1,0.5]];portConstraint=eastwest;rotatable=0;whiteSpace=wrap;html=1;" parent="DJ6YM_CZNNagd6zpl_L4-77" vertex="1">
          <mxGeometry y="180" width="160" height="30" as="geometry" />
        </mxCell>
        <mxCell id="LBKzw_JlbSK5Q4wUVQRv-8" style="edgeStyle=orthogonalEdgeStyle;rounded=0;orthogonalLoop=1;jettySize=auto;html=1;entryX=1;entryY=0.5;entryDx=0;entryDy=0;exitX=0;exitY=0.5;exitDx=0;exitDy=0;endArrow=none;endFill=0;startArrow=classic;startFill=1;" parent="1" source="DJ6YM_CZNNagd6zpl_L4-95" target="DJ6YM_CZNNagd6zpl_L4-83" edge="1">
          <mxGeometry relative="1" as="geometry">
            <Array as="points">
              <mxPoint x="-2160.2" y="-2225" />
              <mxPoint x="-2160.2" y="-2567" />
            </Array>
          </mxGeometry>
        </mxCell>
        <mxCell id="DJ6YM_CZNNagd6zpl_L4-90" value="AdminPerms" style="swimlane;fontStyle=0;childLayout=stackLayout;horizontal=1;startSize=30;horizontalStack=0;resizeParent=1;resizeParentMax=0;resizeLast=0;collapsible=1;marginBottom=0;whiteSpace=wrap;html=1;fillColor=#18141D;fillStyle=solid;" parent="1" vertex="1">
          <mxGeometry x="-1980.2" y="-2270" width="160" height="60" as="geometry" />
        </mxCell>
        <mxCell id="DJ6YM_CZNNagd6zpl_L4-95" value="Manage Roles" style="text;strokeColor=none;fillColor=default;align=left;verticalAlign=middle;spacingLeft=4;spacingRight=4;overflow=hidden;points=[[0,0.5],[1,0.5]];portConstraint=eastwest;rotatable=0;whiteSpace=wrap;html=1;" parent="DJ6YM_CZNNagd6zpl_L4-90" vertex="1">
          <mxGeometry y="30" width="160" height="30" as="geometry" />
        </mxCell>
        <mxCell id="DJ6YM_CZNNagd6zpl_L4-99" value="Role" style="swimlane;fontStyle=0;childLayout=stackLayout;horizontal=1;startSize=30;horizontalStack=0;resizeParent=1;resizeParentMax=0;resizeLast=0;collapsible=1;marginBottom=0;whiteSpace=wrap;html=1;" parent="1" vertex="1">
          <mxGeometry x="-1980.2" y="-2955" width="140" height="70" as="geometry" />
        </mxCell>
        <mxCell id="DJ6YM_CZNNagd6zpl_L4-100" value="Anyone with the role can view" style="text;strokeColor=none;fillColor=#18141D;align=left;verticalAlign=middle;spacingLeft=4;spacingRight=4;overflow=hidden;points=[[0,0.5],[1,0.5]];portConstraint=eastwest;rotatable=0;whiteSpace=wrap;html=1;fillStyle=solid;" parent="DJ6YM_CZNNagd6zpl_L4-99" vertex="1">
          <mxGeometry y="30" width="140" height="40" as="geometry" />
        </mxCell>
        <mxCell id="DJ6YM_CZNNagd6zpl_L4-98" style="edgeStyle=orthogonalEdgeStyle;rounded=0;orthogonalLoop=1;jettySize=auto;html=1;exitX=1;exitY=0.5;exitDx=0;exitDy=0;entryX=0;entryY=0.5;entryDx=0;entryDy=0;" parent="1" source="DJ6YM_CZNNagd6zpl_L4-39" target="DJ6YM_CZNNagd6zpl_L4-100" edge="1">
          <mxGeometry relative="1" as="geometry">
            <mxPoint x="-1850.2" y="-2990" as="targetPoint" />
          </mxGeometry>
        </mxCell>
        <mxCell id="DJ6YM_CZNNagd6zpl_L4-102" value="Author" style="swimlane;fontStyle=0;childLayout=stackLayout;horizontal=1;startSize=30;horizontalStack=0;resizeParent=1;resizeParentMax=0;resizeLast=0;collapsible=1;marginBottom=0;whiteSpace=wrap;html=1;" parent="1" vertex="1">
          <mxGeometry x="-1980.2" y="-2865" width="140" height="60" as="geometry" />
        </mxCell>
        <mxCell id="DJ6YM_CZNNagd6zpl_L4-103" value="Only Author Can View It" style="text;strokeColor=none;fillColor=#18141D;align=left;verticalAlign=middle;spacingLeft=4;spacingRight=4;overflow=hidden;points=[[0,0.5],[1,0.5]];portConstraint=eastwest;rotatable=0;whiteSpace=wrap;html=1;fillStyle=solid;" parent="DJ6YM_CZNNagd6zpl_L4-102" vertex="1">
          <mxGeometry y="30" width="140" height="30" as="geometry" />
        </mxCell>
        <mxCell id="DJ6YM_CZNNagd6zpl_L4-101" style="edgeStyle=orthogonalEdgeStyle;rounded=0;orthogonalLoop=1;jettySize=auto;html=1;entryX=0;entryY=0.5;entryDx=0;entryDy=0;exitX=1;exitY=0.5;exitDx=0;exitDy=0;" parent="1" source="DJ6YM_CZNNagd6zpl_L4-40" target="DJ6YM_CZNNagd6zpl_L4-103" edge="1">
          <mxGeometry relative="1" as="geometry">
            <mxPoint x="-2030.2" y="-2750" as="targetPoint" />
            <mxPoint x="-2210.2" y="-2865" as="sourcePoint" />
            <Array as="points">
              <mxPoint x="-2090.2" y="-2947" />
              <mxPoint x="-2090.2" y="-2820" />
            </Array>
          </mxGeometry>
        </mxCell>
        <mxCell id="DJ6YM_CZNNagd6zpl_L4-106" value="Patreon" style="swimlane;fontStyle=0;childLayout=stackLayout;horizontal=1;startSize=30;horizontalStack=0;resizeParent=1;resizeParentMax=0;resizeLast=0;collapsible=1;marginBottom=0;whiteSpace=wrap;html=1;" parent="1" vertex="1">
          <mxGeometry x="-1980.2" y="-3050" width="140" height="80" as="geometry" />
        </mxCell>
        <mxCell id="DJ6YM_CZNNagd6zpl_L4-107" value="Anyone logged in to patreon at a suffient tier can view" style="text;strokeColor=none;fillColor=#18141D;align=left;verticalAlign=middle;spacingLeft=4;spacingRight=4;overflow=hidden;points=[[0,0.5],[1,0.5]];portConstraint=eastwest;rotatable=0;whiteSpace=wrap;html=1;fillStyle=solid;" parent="DJ6YM_CZNNagd6zpl_L4-106" vertex="1">
          <mxGeometry y="30" width="140" height="50" as="geometry" />
        </mxCell>
        <mxCell id="DJ6YM_CZNNagd6zpl_L4-111" value="Public" style="swimlane;fontStyle=0;childLayout=stackLayout;horizontal=1;startSize=30;horizontalStack=0;resizeParent=1;resizeParentMax=0;resizeLast=0;collapsible=1;marginBottom=0;whiteSpace=wrap;html=1;fillColor=#18141D;fillStyle=solid;" parent="1" vertex="1">
          <mxGeometry x="-1980.2" y="-2772.5" width="160" height="60" as="geometry" />
        </mxCell>
        <mxCell id="DJ6YM_CZNNagd6zpl_L4-112" value="View Only Public Posts" style="text;strokeColor=none;fillColor=none;align=left;verticalAlign=middle;spacingLeft=4;spacingRight=4;overflow=hidden;points=[[0,0.5],[1,0.5]];portConstraint=eastwest;rotatable=0;whiteSpace=wrap;html=1;" parent="DJ6YM_CZNNagd6zpl_L4-111" vertex="1">
          <mxGeometry y="30" width="160" height="30" as="geometry" />
        </mxCell>
        <mxCell id="DJ6YM_CZNNagd6zpl_L4-49" style="edgeStyle=orthogonalEdgeStyle;rounded=0;orthogonalLoop=1;jettySize=auto;html=1;entryX=0;entryY=0.5;entryDx=0;entryDy=0;" parent="1" source="DJ6YM_CZNNagd6zpl_L4-38" target="DJ6YM_CZNNagd6zpl_L4-107" edge="1">
          <mxGeometry relative="1" as="geometry">
            <mxPoint x="-1870.2" y="-3030" as="targetPoint" />
          </mxGeometry>
        </mxCell>
        <mxCell id="DJ6YM_CZNNagd6zpl_L4-117" style="edgeStyle=orthogonalEdgeStyle;rounded=0;orthogonalLoop=1;jettySize=auto;html=1;exitX=0;exitY=0.5;exitDx=0;exitDy=0;entryX=1;entryY=0.5;entryDx=0;entryDy=0;" parent="1" source="DJ6YM_CZNNagd6zpl_L4-11" target="5d2195bd80daf111-18" edge="1">
          <mxGeometry relative="1" as="geometry">
            <mxPoint x="-1770.2" y="-1705" as="targetPoint" />
            <mxPoint x="-2177.2" y="-1120" as="sourcePoint" />
          </mxGeometry>
        </mxCell>
        <mxCell id="LBKzw_JlbSK5Q4wUVQRv-4" value="View" style="edgeLabel;html=1;align=center;verticalAlign=middle;resizable=0;points=[];rotation=0;" parent="DJ6YM_CZNNagd6zpl_L4-117" vertex="1" connectable="0">
          <mxGeometry x="-0.2943" y="1" relative="1" as="geometry">
            <mxPoint x="-29" y="108" as="offset" />
          </mxGeometry>
        </mxCell>
        <mxCell id="DJ6YM_CZNNagd6zpl_L4-122" style="edgeStyle=orthogonalEdgeStyle;rounded=0;orthogonalLoop=1;jettySize=auto;html=1;entryX=1;entryY=0.5;entryDx=0;entryDy=0;startArrow=classic;startFill=1;endArrow=none;endFill=0;" parent="1" source="DJ6YM_CZNNagd6zpl_L4-56" target="DJ6YM_CZNNagd6zpl_L4-74" edge="1">
          <mxGeometry relative="1" as="geometry">
            <mxPoint x="-1280.2" y="-2367.5" as="targetPoint" />
          </mxGeometry>
        </mxCell>
        <mxCell id="DJ6YM_CZNNagd6zpl_L4-123" style="edgeStyle=orthogonalEdgeStyle;rounded=0;orthogonalLoop=1;jettySize=auto;html=1;entryX=1;entryY=0.5;entryDx=0;entryDy=0;startArrow=classic;startFill=1;endArrow=none;endFill=0;" parent="1" source="DJ6YM_CZNNagd6zpl_L4-112" target="DJ6YM_CZNNagd6zpl_L4-70" edge="1">
          <mxGeometry relative="1" as="geometry">
            <mxPoint x="-1280.2" y="-2397.5" as="targetPoint" />
          </mxGeometry>
        </mxCell>
        <mxCell id="DJ6YM_CZNNagd6zpl_L4-128" value="EditorPerms" style="swimlane;fontStyle=0;childLayout=stackLayout;horizontal=1;startSize=30;horizontalStack=0;resizeParent=1;resizeParentMax=0;resizeLast=0;collapsible=1;marginBottom=0;whiteSpace=wrap;html=1;" parent="1" vertex="1">
          <mxGeometry x="-1980.2" y="-2612.5" width="160" height="90" as="geometry" />
        </mxCell>
        <mxCell id="DJ6YM_CZNNagd6zpl_L4-129" value="View All Available To Role" style="text;strokeColor=none;fillColor=#18141D;align=left;verticalAlign=middle;spacingLeft=4;spacingRight=4;overflow=hidden;points=[[0,0.5],[1,0.5]];portConstraint=eastwest;rotatable=0;whiteSpace=wrap;html=1;fillStyle=solid;" parent="DJ6YM_CZNNagd6zpl_L4-128" vertex="1">
          <mxGeometry y="30" width="160" height="30" as="geometry" />
        </mxCell>
        <mxCell id="DJ6YM_CZNNagd6zpl_L4-130" value="Edit All Available To Role" style="text;strokeColor=none;fillColor=default;align=left;verticalAlign=middle;spacingLeft=4;spacingRight=4;overflow=hidden;points=[[0,0.5],[1,0.5]];portConstraint=eastwest;rotatable=0;whiteSpace=wrap;html=1;" parent="DJ6YM_CZNNagd6zpl_L4-128" vertex="1">
          <mxGeometry y="60" width="160" height="30" as="geometry" />
        </mxCell>
        <mxCell id="DJ6YM_CZNNagd6zpl_L4-134" style="edgeStyle=orthogonalEdgeStyle;rounded=0;orthogonalLoop=1;jettySize=auto;html=1;entryX=1;entryY=0.5;entryDx=0;entryDy=0;endArrow=none;endFill=0;startArrow=classic;startFill=1;" parent="1" source="DJ6YM_CZNNagd6zpl_L4-129" target="DJ6YM_CZNNagd6zpl_L4-75" edge="1">
          <mxGeometry relative="1" as="geometry">
            <mxPoint x="-1280.2" y="-2337.5" as="targetPoint" />
          </mxGeometry>
        </mxCell>
        <mxCell id="LBKzw_JlbSK5Q4wUVQRv-47" style="edgeStyle=orthogonalEdgeStyle;rounded=0;orthogonalLoop=1;jettySize=auto;html=1;exitX=0;exitY=0.5;exitDx=0;exitDy=0;entryX=0.5;entryY=0;entryDx=0;entryDy=0;" parent="1" source="5d2195bd80daf111-18" target="DJ6YM_CZNNagd6zpl_L4-30" edge="1">
          <mxGeometry relative="1" as="geometry" />
        </mxCell>
        <mxCell id="LBKzw_JlbSK5Q4wUVQRv-48" value="Category" style="edgeLabel;html=1;align=center;verticalAlign=middle;resizable=0;points=[];" parent="LBKzw_JlbSK5Q4wUVQRv-47" vertex="1" connectable="0">
          <mxGeometry x="0.2581" relative="1" as="geometry">
            <mxPoint as="offset" />
          </mxGeometry>
        </mxCell>
        <mxCell id="5d2195bd80daf111-18" value="&lt;p style=&quot;margin:0px;margin-top:4px;text-align:center;&quot;&gt;&lt;b&gt;Story&lt;/b&gt;&lt;/p&gt;&lt;hr size=&quot;1&quot;&gt;&lt;p style=&quot;margin:0px;margin-left:4px;&quot;&gt;+ Title: String&lt;br&gt;+ type: String&lt;/p&gt;&lt;p style=&quot;margin:0px;margin-left:4px;&quot;&gt;+ category: String&lt;/p&gt;&lt;p style=&quot;margin:0px;margin-left:4px;&quot;&gt;+ view: String&lt;/p&gt;&lt;p style=&quot;margin:0px;margin-left:4px;&quot;&gt;+ u_id: Int&lt;br&gt;+ chapter: Page&lt;/p&gt;&lt;hr size=&quot;1&quot;&gt;&lt;p style=&quot;margin:0px;margin-left:4px;&quot;&gt;+ method1(Type): Type&lt;br&gt;+ method2(Type, Type): Type&lt;/p&gt;" style="verticalAlign=top;align=left;overflow=fill;fontSize=12;fontFamily=Helvetica;html=1;rounded=0;shadow=0;comic=0;labelBackgroundColor=none;strokeWidth=1" parent="1" vertex="1">
          <mxGeometry x="-3410.2" y="-2910" width="190" height="170" as="geometry" />
        </mxCell>
        <mxCell id="DJ6YM_CZNNagd6zpl_L4-11" value="&lt;p style=&quot;margin:0px;margin-top:4px;text-align:center;&quot;&gt;&lt;b&gt;View&lt;/b&gt;&lt;/p&gt;&lt;hr size=&quot;1&quot;&gt;&lt;p style=&quot;margin:0px;margin-left:4px;&quot;&gt;+ view_type: String&lt;br&gt;&lt;/p&gt;&lt;hr size=&quot;1&quot;&gt;&lt;p style=&quot;margin:0px;margin-left:4px;&quot;&gt;+ method1(Type): Type&lt;br&gt;+ method2(Type, Type): Type&lt;/p&gt;" style="verticalAlign=top;align=left;overflow=fill;fontSize=12;fontFamily=Helvetica;html=1;rounded=0;shadow=0;comic=0;labelBackgroundColor=none;strokeWidth=1" parent="1" vertex="1">
          <mxGeometry x="-3080.2" y="-3035" width="190" height="140" as="geometry" />
        </mxCell>
        <mxCell id="LBKzw_JlbSK5Q4wUVQRv-11" value="&lt;h1 style=&quot;font-size: 70px;&quot;&gt;Matt&#39;s Site&lt;/h1&gt;" style="text;html=1;strokeColor=none;fillColor=none;align=center;verticalAlign=middle;whiteSpace=wrap;rounded=0;" parent="1" vertex="1">
          <mxGeometry x="-2930.2" y="-3160" width="580" height="30" as="geometry" />
        </mxCell>
        <mxCell id="DJ6YM_CZNNagd6zpl_L4-69" value="Roles" style="swimlane;fontStyle=0;childLayout=stackLayout;horizontal=1;startSize=30;horizontalStack=0;resizeParent=1;resizeParentMax=0;resizeLast=0;collapsible=1;marginBottom=0;whiteSpace=wrap;html=1;fillStyle=solid;fillColor=#18141D;swimlaneLine=1;strokeColor=default;" parent="1" vertex="1">
          <mxGeometry x="-2400.2" y="-2732.5" width="140" height="180" as="geometry">
            <mxRectangle x="940" y="-440" width="60" height="30" as="alternateBounds" />
          </mxGeometry>
        </mxCell>
        <mxCell id="DJ6YM_CZNNagd6zpl_L4-70" value="Public/Not Logged In" style="text;strokeColor=none;fillColor=default;align=left;verticalAlign=middle;spacingLeft=4;spacingRight=4;overflow=hidden;points=[[0,0.5],[1,0.5]];portConstraint=eastwest;rotatable=0;whiteSpace=wrap;html=1;" parent="DJ6YM_CZNNagd6zpl_L4-69" vertex="1">
          <mxGeometry y="30" width="140" height="30" as="geometry" />
        </mxCell>
        <mxCell id="DJ6YM_CZNNagd6zpl_L4-74" value="Special Contributer" style="text;strokeColor=none;fillColor=default;align=left;verticalAlign=middle;spacingLeft=4;spacingRight=4;overflow=hidden;points=[[0,0.5],[1,0.5]];portConstraint=eastwest;rotatable=0;whiteSpace=wrap;html=1;" parent="DJ6YM_CZNNagd6zpl_L4-69" vertex="1">
          <mxGeometry y="60" width="140" height="30" as="geometry" />
        </mxCell>
        <mxCell id="DJ6YM_CZNNagd6zpl_L4-75" value="Editor" style="text;strokeColor=none;fillColor=default;align=left;verticalAlign=middle;spacingLeft=4;spacingRight=4;overflow=hidden;points=[[0,0.5],[1,0.5]];portConstraint=eastwest;rotatable=0;whiteSpace=wrap;html=1;" parent="DJ6YM_CZNNagd6zpl_L4-69" vertex="1">
          <mxGeometry y="90" width="140" height="30" as="geometry" />
        </mxCell>
        <mxCell id="DJ6YM_CZNNagd6zpl_L4-76" value="Author" style="text;strokeColor=none;fillColor=default;align=left;verticalAlign=middle;spacingLeft=4;spacingRight=4;overflow=hidden;points=[[0,0.5],[1,0.5]];portConstraint=eastwest;rotatable=0;whiteSpace=wrap;html=1;" parent="DJ6YM_CZNNagd6zpl_L4-69" vertex="1">
          <mxGeometry y="120" width="140" height="30" as="geometry" />
        </mxCell>
        <mxCell id="DJ6YM_CZNNagd6zpl_L4-83" value="Site Admin" style="text;strokeColor=none;fillColor=default;align=left;verticalAlign=middle;spacingLeft=4;spacingRight=4;overflow=hidden;points=[[0,0.5],[1,0.5]];portConstraint=eastwest;rotatable=0;whiteSpace=wrap;html=1;" parent="DJ6YM_CZNNagd6zpl_L4-69" vertex="1">
          <mxGeometry y="150" width="140" height="30" as="geometry" />
        </mxCell>
        <mxCell id="LBKzw_JlbSK5Q4wUVQRv-81" value="MiniAdmin" style="whiteSpace=wrap;html=1;fillColor=#18141D;fontStyle=0;startSize=30;fillStyle=solid;rotation=-90;" parent="1" vertex="1">
          <mxGeometry x="-1830.2" y="-2412.5" width="120" height="30" as="geometry" />
        </mxCell>
        <mxCell id="a-bXBp3ErzStBLWRxPki-2" value="Notes" style="shape=table;startSize=30;container=1;collapsible=0;childLayout=tableLayout;strokeColor=default;fontSize=16;" parent="1" vertex="1">
          <mxGeometry x="-3385" y="-2180" width="290" height="300.00000000000045" as="geometry" />
        </mxCell>
        <mxCell id="a-bXBp3ErzStBLWRxPki-3" value="" style="shape=tableRow;horizontal=0;startSize=0;swimlaneHead=0;swimlaneBody=0;strokeColor=inherit;top=0;left=0;bottom=0;right=0;collapsible=0;dropTarget=0;fillColor=none;points=[[0,0.5],[1,0.5]];portConstraint=eastwest;fontSize=16;" parent="a-bXBp3ErzStBLWRxPki-2" vertex="1">
          <mxGeometry y="30" width="290" height="80" as="geometry" />
        </mxCell>
        <mxCell id="a-bXBp3ErzStBLWRxPki-4" value="Aesthetic" style="shape=partialRectangle;html=1;whiteSpace=wrap;connectable=0;strokeColor=inherit;overflow=hidden;fillColor=none;top=0;left=0;bottom=0;right=0;pointerEvents=1;fontSize=16;" parent="a-bXBp3ErzStBLWRxPki-3" vertex="1">
          <mxGeometry width="145" height="80" as="geometry">
            <mxRectangle width="145" height="80" as="alternateBounds" />
          </mxGeometry>
        </mxCell>
        <mxCell id="a-bXBp3ErzStBLWRxPki-6" value="Dark Mode&lt;br style=&quot;font-size: 16px;&quot;&gt;Light Mode" style="shape=partialRectangle;html=1;whiteSpace=wrap;connectable=0;strokeColor=inherit;overflow=hidden;fillColor=none;top=0;left=0;bottom=0;right=0;pointerEvents=1;fontSize=16;" parent="a-bXBp3ErzStBLWRxPki-3" vertex="1">
          <mxGeometry x="145" width="145" height="80" as="geometry">
            <mxRectangle width="145" height="80" as="alternateBounds" />
          </mxGeometry>
        </mxCell>
        <mxCell id="a-bXBp3ErzStBLWRxPki-7" value="" style="shape=tableRow;horizontal=0;startSize=0;swimlaneHead=0;swimlaneBody=0;strokeColor=inherit;top=0;left=0;bottom=0;right=0;collapsible=0;dropTarget=0;fillColor=none;points=[[0,0.5],[1,0.5]];portConstraint=eastwest;fontSize=16;" parent="a-bXBp3ErzStBLWRxPki-2" vertex="1">
          <mxGeometry y="110" width="290" height="50" as="geometry" />
        </mxCell>
        <mxCell id="a-bXBp3ErzStBLWRxPki-8" value="User Accounts" style="shape=partialRectangle;html=1;whiteSpace=wrap;connectable=0;strokeColor=inherit;overflow=hidden;fillColor=none;top=0;left=0;bottom=0;right=0;pointerEvents=1;fontSize=16;" parent="a-bXBp3ErzStBLWRxPki-7" vertex="1">
          <mxGeometry width="145" height="50" as="geometry">
            <mxRectangle width="145" height="50" as="alternateBounds" />
          </mxGeometry>
        </mxCell>
        <mxCell id="a-bXBp3ErzStBLWRxPki-10" value="PII??????" style="shape=partialRectangle;html=1;whiteSpace=wrap;connectable=0;strokeColor=inherit;overflow=hidden;fillColor=none;top=0;left=0;bottom=0;right=0;pointerEvents=1;fontSize=16;" parent="a-bXBp3ErzStBLWRxPki-7" vertex="1">
          <mxGeometry x="145" width="145" height="50" as="geometry">
            <mxRectangle width="145" height="50" as="alternateBounds" />
          </mxGeometry>
        </mxCell>
        <mxCell id="a-bXBp3ErzStBLWRxPki-11" value="" style="shape=tableRow;horizontal=0;startSize=0;swimlaneHead=0;swimlaneBody=0;strokeColor=inherit;top=0;left=0;bottom=0;right=0;collapsible=0;dropTarget=0;fillColor=none;points=[[0,0.5],[1,0.5]];portConstraint=eastwest;fontSize=16;" parent="a-bXBp3ErzStBLWRxPki-2" vertex="1">
          <mxGeometry y="160" width="290" height="70" as="geometry" />
        </mxCell>
        <mxCell id="a-bXBp3ErzStBLWRxPki-12" value="Login via 3rd Party" style="shape=partialRectangle;html=1;whiteSpace=wrap;connectable=0;strokeColor=inherit;overflow=hidden;fillColor=none;top=0;left=0;bottom=0;right=0;pointerEvents=1;fontSize=16;" parent="a-bXBp3ErzStBLWRxPki-11" vertex="1">
          <mxGeometry width="145" height="70" as="geometry">
            <mxRectangle width="145" height="70" as="alternateBounds" />
          </mxGeometry>
        </mxCell>
        <mxCell id="a-bXBp3ErzStBLWRxPki-14" value="Wordpress&lt;br&gt;Discord" style="shape=partialRectangle;html=1;whiteSpace=wrap;connectable=0;strokeColor=inherit;overflow=hidden;fillColor=none;top=0;left=0;bottom=0;right=0;pointerEvents=1;fontSize=16;" parent="a-bXBp3ErzStBLWRxPki-11" vertex="1">
          <mxGeometry x="145" width="145" height="70" as="geometry">
            <mxRectangle width="145" height="70" as="alternateBounds" />
          </mxGeometry>
        </mxCell>
        <mxCell id="a-bXBp3ErzStBLWRxPki-76" style="shape=tableRow;horizontal=0;startSize=0;swimlaneHead=0;swimlaneBody=0;strokeColor=inherit;top=0;left=0;bottom=0;right=0;collapsible=0;dropTarget=0;fillColor=none;points=[[0,0.5],[1,0.5]];portConstraint=eastwest;fontSize=16;" parent="a-bXBp3ErzStBLWRxPki-2" vertex="1">
          <mxGeometry y="230" width="290" height="70" as="geometry" />
        </mxCell>
        <mxCell id="a-bXBp3ErzStBLWRxPki-77" value="Admin Rights" style="shape=partialRectangle;html=1;whiteSpace=wrap;connectable=0;strokeColor=inherit;overflow=hidden;fillColor=none;top=0;left=0;bottom=0;right=0;pointerEvents=1;fontSize=16;" parent="a-bXBp3ErzStBLWRxPki-76" vertex="1">
          <mxGeometry width="145" height="70" as="geometry">
            <mxRectangle width="145" height="70" as="alternateBounds" />
          </mxGeometry>
        </mxCell>
        <mxCell id="a-bXBp3ErzStBLWRxPki-78" value="Split Django and Author Site" style="shape=partialRectangle;html=1;whiteSpace=wrap;connectable=0;strokeColor=inherit;overflow=hidden;fillColor=none;top=0;left=0;bottom=0;right=0;pointerEvents=1;fontSize=16;" parent="a-bXBp3ErzStBLWRxPki-76" vertex="1">
          <mxGeometry x="145" width="145" height="70" as="geometry">
            <mxRectangle width="145" height="70" as="alternateBounds" />
          </mxGeometry>
        </mxCell>
        <mxCell id="a-bXBp3ErzStBLWRxPki-66" value="DefaultUserPageTypes" style="swimlane;fontStyle=0;childLayout=stackLayout;horizontal=1;startSize=30;horizontalStack=0;resizeParent=1;resizeParentMax=0;resizeLast=0;collapsible=1;marginBottom=0;whiteSpace=wrap;html=1;" parent="1" vertex="1">
          <mxGeometry x="-1840.2" y="-1450" width="180" height="60" as="geometry" />
        </mxCell>
        <mxCell id="a-bXBp3ErzStBLWRxPki-67" value="Account Management" style="text;strokeColor=none;fillColor=none;align=left;verticalAlign=middle;spacingLeft=4;spacingRight=4;overflow=hidden;points=[[0,0.5],[1,0.5]];portConstraint=eastwest;rotatable=0;whiteSpace=wrap;html=1;" parent="a-bXBp3ErzStBLWRxPki-66" vertex="1">
          <mxGeometry y="30" width="180" height="30" as="geometry" />
        </mxCell>
        <mxCell id="a-bXBp3ErzStBLWRxPki-70" value="EditorUserPageTypes" style="swimlane;fontStyle=0;childLayout=stackLayout;horizontal=1;startSize=30;horizontalStack=0;resizeParent=1;resizeParentMax=0;resizeLast=0;collapsible=1;marginBottom=0;whiteSpace=wrap;html=1;" parent="1" vertex="1">
          <mxGeometry x="-1840.2" y="-1290" width="180" height="60" as="geometry" />
        </mxCell>
        <mxCell id="a-bXBp3ErzStBLWRxPki-71" value="Account Management" style="text;strokeColor=none;fillColor=none;align=left;verticalAlign=middle;spacingLeft=4;spacingRight=4;overflow=hidden;points=[[0,0.5],[1,0.5]];portConstraint=eastwest;rotatable=0;whiteSpace=wrap;html=1;" parent="a-bXBp3ErzStBLWRxPki-70" vertex="1">
          <mxGeometry y="30" width="180" height="30" as="geometry" />
        </mxCell>
        <mxCell id="a-bXBp3ErzStBLWRxPki-72" value="AuthorUserPageTypes" style="swimlane;fontStyle=0;childLayout=stackLayout;horizontal=1;startSize=30;horizontalStack=0;resizeParent=1;resizeParentMax=0;resizeLast=0;collapsible=1;marginBottom=0;whiteSpace=wrap;html=1;" parent="1" vertex="1">
          <mxGeometry x="-1840.2" y="-1213" width="180" height="120" as="geometry" />
        </mxCell>
        <mxCell id="a-bXBp3ErzStBLWRxPki-73" value="Account Management" style="text;strokeColor=none;fillColor=none;align=left;verticalAlign=middle;spacingLeft=4;spacingRight=4;overflow=hidden;points=[[0,0.5],[1,0.5]];portConstraint=eastwest;rotatable=0;whiteSpace=wrap;html=1;" parent="a-bXBp3ErzStBLWRxPki-72" vertex="1">
          <mxGeometry y="30" width="180" height="30" as="geometry" />
        </mxCell>
        <mxCell id="a-bXBp3ErzStBLWRxPki-74" value="Role Management" style="text;strokeColor=none;fillColor=none;align=left;verticalAlign=middle;spacingLeft=4;spacingRight=4;overflow=hidden;points=[[0,0.5],[1,0.5]];portConstraint=eastwest;rotatable=0;whiteSpace=wrap;html=1;" parent="a-bXBp3ErzStBLWRxPki-72" vertex="1">
          <mxGeometry y="60" width="180" height="30" as="geometry" />
        </mxCell>
        <mxCell id="a-bXBp3ErzStBLWRxPki-75" value="Upload Posts&amp;nbsp;&lt;sub&gt;&amp;nbsp;Rich Text Editor&lt;/sub&gt;" style="text;strokeColor=none;fillColor=none;align=left;verticalAlign=middle;spacingLeft=4;spacingRight=4;overflow=hidden;points=[[0,0.5],[1,0.5]];portConstraint=eastwest;rotatable=0;whiteSpace=wrap;html=1;" parent="a-bXBp3ErzStBLWRxPki-72" vertex="1">
          <mxGeometry y="90" width="180" height="30" as="geometry" />
        </mxCell>
        <mxCell id="a-bXBp3ErzStBLWRxPki-79" value="&lt;h1&gt;&lt;font size=&quot;1&quot;&gt;&lt;u style=&quot;font-size: 24px;&quot;&gt;Author Site Front End&lt;/u&gt;&lt;/font&gt;&lt;/h1&gt;" style="rounded=0;whiteSpace=wrap;html=1;verticalAlign=top;fillColor=none;" parent="1" vertex="1">
          <mxGeometry x="-3472" y="-1590" width="1100" height="580" as="geometry" />
        </mxCell>
        <mxCell id="a-bXBp3ErzStBLWRxPki-80" value="SideBar" style="swimlane;fontStyle=0;childLayout=stackLayout;horizontal=1;startSize=30;horizontalStack=0;resizeParent=1;resizeParentMax=0;resizeLast=0;collapsible=1;marginBottom=0;whiteSpace=wrap;html=1;" parent="1" vertex="1">
          <mxGeometry x="-3432" y="-1530" width="140" height="270" as="geometry" />
        </mxCell>
        <mxCell id="a-bXBp3ErzStBLWRxPki-81" value="Home" style="text;strokeColor=none;fillColor=default;align=left;verticalAlign=middle;spacingLeft=4;spacingRight=4;overflow=hidden;points=[[0,0.5],[1,0.5]];portConstraint=eastwest;rotatable=0;whiteSpace=wrap;html=1;labelBackgroundColor=none;" parent="a-bXBp3ErzStBLWRxPki-80" vertex="1">
          <mxGeometry y="30" width="140" height="30" as="geometry" />
        </mxCell>
        <mxCell id="a-bXBp3ErzStBLWRxPki-82" value="Original Novels" style="text;strokeColor=none;fillColor=default;align=left;verticalAlign=middle;spacingLeft=4;spacingRight=4;overflow=hidden;points=[[0,0.5],[1,0.5]];portConstraint=eastwest;rotatable=0;whiteSpace=wrap;html=1;labelBackgroundColor=none;" parent="a-bXBp3ErzStBLWRxPki-80" vertex="1">
          <mxGeometry y="60" width="140" height="30" as="geometry" />
        </mxCell>
        <mxCell id="a-bXBp3ErzStBLWRxPki-83" value="Original Short Pieces and Commissions" style="text;strokeColor=none;fillColor=default;align=left;verticalAlign=middle;spacingLeft=4;spacingRight=4;overflow=hidden;points=[[0,0.5],[1,0.5]];portConstraint=eastwest;rotatable=0;whiteSpace=wrap;html=1;labelBackgroundColor=none;" parent="a-bXBp3ErzStBLWRxPki-80" vertex="1">
          <mxGeometry y="90" width="140" height="30" as="geometry" />
        </mxCell>
        <mxCell id="a-bXBp3ErzStBLWRxPki-84" value="Fanfiction Stories" style="text;strokeColor=none;fillColor=default;align=left;verticalAlign=middle;spacingLeft=4;spacingRight=4;overflow=hidden;points=[[0,0.5],[1,0.5]];portConstraint=eastwest;rotatable=0;whiteSpace=wrap;html=1;labelBackgroundColor=none;" parent="a-bXBp3ErzStBLWRxPki-80" vertex="1">
          <mxGeometry y="120" width="140" height="30" as="geometry" />
        </mxCell>
        <mxCell id="a-bXBp3ErzStBLWRxPki-85" value="E-Bookstore" style="text;strokeColor=none;fillColor=default;align=left;verticalAlign=middle;spacingLeft=4;spacingRight=4;overflow=hidden;points=[[0,0.5],[1,0.5]];portConstraint=eastwest;rotatable=0;whiteSpace=wrap;html=1;labelBackgroundColor=none;" parent="a-bXBp3ErzStBLWRxPki-80" vertex="1">
          <mxGeometry y="150" width="140" height="30" as="geometry" />
        </mxCell>
        <mxCell id="a-bXBp3ErzStBLWRxPki-86" value="Fanfiction Collection" style="text;strokeColor=none;fillColor=default;align=left;verticalAlign=middle;spacingLeft=4;spacingRight=4;overflow=hidden;points=[[0,0.5],[1,0.5]];portConstraint=eastwest;rotatable=0;whiteSpace=wrap;html=1;labelBackgroundColor=none;" parent="a-bXBp3ErzStBLWRxPki-80" vertex="1">
          <mxGeometry y="180" width="140" height="30" as="geometry" />
        </mxCell>
        <mxCell id="a-bXBp3ErzStBLWRxPki-87" value="Deadications" style="text;strokeColor=none;fillColor=default;align=left;verticalAlign=middle;spacingLeft=4;spacingRight=4;overflow=hidden;points=[[0,0.5],[1,0.5]];portConstraint=eastwest;rotatable=0;whiteSpace=wrap;html=1;labelBackgroundColor=none;" parent="a-bXBp3ErzStBLWRxPki-80" vertex="1">
          <mxGeometry y="210" width="140" height="30" as="geometry" />
        </mxCell>
        <mxCell id="a-bXBp3ErzStBLWRxPki-88" value="About Me" style="text;strokeColor=none;fillColor=default;align=left;verticalAlign=middle;spacingLeft=4;spacingRight=4;overflow=hidden;points=[[0,0.5],[1,0.5]];portConstraint=eastwest;rotatable=0;whiteSpace=wrap;html=1;labelBackgroundColor=none;" parent="a-bXBp3ErzStBLWRxPki-80" vertex="1">
          <mxGeometry y="240" width="140" height="30" as="geometry" />
        </mxCell>
        <mxCell id="a-bXBp3ErzStBLWRxPki-89" value="Page Features" style="swimlane;fontStyle=0;childLayout=stackLayout;horizontal=1;startSize=30;horizontalStack=0;resizeParent=1;resizeParentMax=0;resizeLast=0;collapsible=1;marginBottom=0;whiteSpace=wrap;html=1;" parent="1" vertex="1">
          <mxGeometry x="-3432" y="-1220" width="140" height="150" as="geometry" />
        </mxCell>
        <mxCell id="a-bXBp3ErzStBLWRxPki-90" value="Header" style="text;strokeColor=none;fillColor=default;align=left;verticalAlign=middle;spacingLeft=4;spacingRight=4;overflow=hidden;points=[[0,0.5],[1,0.5]];portConstraint=eastwest;rotatable=0;whiteSpace=wrap;html=1;" parent="a-bXBp3ErzStBLWRxPki-89" vertex="1">
          <mxGeometry y="30" width="140" height="30" as="geometry" />
        </mxCell>
        <mxCell id="a-bXBp3ErzStBLWRxPki-91" value="NavBar" style="text;strokeColor=none;fillColor=default;align=left;verticalAlign=middle;spacingLeft=4;spacingRight=4;overflow=hidden;points=[[0,0.5],[1,0.5]];portConstraint=eastwest;rotatable=0;whiteSpace=wrap;html=1;" parent="a-bXBp3ErzStBLWRxPki-89" vertex="1">
          <mxGeometry y="60" width="140" height="30" as="geometry" />
        </mxCell>
        <mxCell id="a-bXBp3ErzStBLWRxPki-92" value="SideBar" style="text;strokeColor=none;fillColor=default;align=left;verticalAlign=middle;spacingLeft=4;spacingRight=4;overflow=hidden;points=[[0,0.5],[1,0.5]];portConstraint=eastwest;rotatable=0;whiteSpace=wrap;html=1;" parent="a-bXBp3ErzStBLWRxPki-89" vertex="1">
          <mxGeometry y="90" width="140" height="30" as="geometry" />
        </mxCell>
        <mxCell id="a-bXBp3ErzStBLWRxPki-93" value="Footer" style="text;strokeColor=none;fillColor=default;align=left;verticalAlign=middle;spacingLeft=4;spacingRight=4;overflow=hidden;points=[[0,0.5],[1,0.5]];portConstraint=eastwest;rotatable=0;whiteSpace=wrap;html=1;" parent="a-bXBp3ErzStBLWRxPki-89" vertex="1">
          <mxGeometry y="120" width="140" height="30" as="geometry" />
        </mxCell>
        <mxCell id="a-bXBp3ErzStBLWRxPki-94" value="PageTypes" style="swimlane;fontStyle=0;childLayout=stackLayout;horizontal=1;startSize=30;horizontalStack=0;resizeParent=1;resizeParentMax=0;resizeLast=0;collapsible=1;marginBottom=0;whiteSpace=wrap;html=1;" parent="1" vertex="1">
          <mxGeometry x="-3197" y="-1500" width="140" height="210" as="geometry" />
        </mxCell>
        <mxCell id="a-bXBp3ErzStBLWRxPki-95" value="Home" style="text;strokeColor=none;fillColor=default;align=left;verticalAlign=middle;spacingLeft=4;spacingRight=4;overflow=hidden;points=[[0,0.5],[1,0.5]];portConstraint=eastwest;rotatable=0;whiteSpace=wrap;html=1;labelBackgroundColor=none;" parent="a-bXBp3ErzStBLWRxPki-94" vertex="1">
          <mxGeometry y="30" width="140" height="30" as="geometry" />
        </mxCell>
        <mxCell id="a-bXBp3ErzStBLWRxPki-96" value="Story" style="text;strokeColor=none;fillColor=default;align=left;verticalAlign=middle;spacingLeft=4;spacingRight=4;overflow=hidden;points=[[0,0.5],[1,0.5]];portConstraint=eastwest;rotatable=0;whiteSpace=wrap;html=1;labelBackgroundColor=none;" parent="a-bXBp3ErzStBLWRxPki-94" vertex="1">
          <mxGeometry y="60" width="140" height="30" as="geometry" />
        </mxCell>
        <mxCell id="a-bXBp3ErzStBLWRxPki-97" value="Chapter" style="text;strokeColor=none;fillColor=default;align=left;verticalAlign=middle;spacingLeft=4;spacingRight=4;overflow=hidden;points=[[0,0.5],[1,0.5]];portConstraint=eastwest;rotatable=0;whiteSpace=wrap;html=1;labelBackgroundColor=none;" parent="a-bXBp3ErzStBLWRxPki-94" vertex="1">
          <mxGeometry y="90" width="140" height="30" as="geometry" />
        </mxCell>
        <mxCell id="a-bXBp3ErzStBLWRxPki-98" value="About Me" style="text;strokeColor=none;fillColor=default;align=left;verticalAlign=middle;spacingLeft=4;spacingRight=4;overflow=hidden;points=[[0,0.5],[1,0.5]];portConstraint=eastwest;rotatable=0;whiteSpace=wrap;html=1;labelBackgroundColor=none;" parent="a-bXBp3ErzStBLWRxPki-94" vertex="1">
          <mxGeometry y="120" width="140" height="30" as="geometry" />
        </mxCell>
        <mxCell id="a-bXBp3ErzStBLWRxPki-99" value="Collection" style="text;strokeColor=none;fillColor=default;align=left;verticalAlign=middle;spacingLeft=4;spacingRight=4;overflow=hidden;points=[[0,0.5],[1,0.5]];portConstraint=eastwest;rotatable=0;whiteSpace=wrap;html=1;labelBackgroundColor=none;" parent="a-bXBp3ErzStBLWRxPki-94" vertex="1">
          <mxGeometry y="150" width="140" height="30" as="geometry" />
        </mxCell>
        <mxCell id="a-bXBp3ErzStBLWRxPki-100" value="Series" style="text;strokeColor=none;fillColor=default;align=left;verticalAlign=middle;spacingLeft=4;spacingRight=4;overflow=hidden;points=[[0,0.5],[1,0.5]];portConstraint=eastwest;rotatable=0;whiteSpace=wrap;html=1;labelBackgroundColor=none;" parent="a-bXBp3ErzStBLWRxPki-94" vertex="1">
          <mxGeometry y="180" width="140" height="30" as="geometry" />
        </mxCell>
        <mxCell id="a-bXBp3ErzStBLWRxPki-101" style="edgeStyle=orthogonalEdgeStyle;rounded=0;orthogonalLoop=1;jettySize=auto;html=1;entryX=1;entryY=0.5;entryDx=0;entryDy=0;startArrow=classic;startFill=1;endArrow=none;endFill=0;" parent="1" source="a-bXBp3ErzStBLWRxPki-102" target="a-bXBp3ErzStBLWRxPki-96" edge="1">
          <mxGeometry relative="1" as="geometry" />
        </mxCell>
        <mxCell id="a-bXBp3ErzStBLWRxPki-102" value="Story" style="swimlane;fontStyle=0;childLayout=stackLayout;horizontal=1;startSize=30;horizontalStack=0;resizeParent=1;resizeParentMax=0;resizeLast=0;collapsible=1;marginBottom=0;whiteSpace=wrap;html=1;" parent="1" vertex="1">
          <mxGeometry x="-2762" y="-1530" width="140" height="90" as="geometry" />
        </mxCell>
        <mxCell id="a-bXBp3ErzStBLWRxPki-103" value="Story Summary" style="text;strokeColor=none;fillColor=none;align=left;verticalAlign=middle;spacingLeft=4;spacingRight=4;overflow=hidden;points=[[0,0.5],[1,0.5]];portConstraint=eastwest;rotatable=0;whiteSpace=wrap;html=1;" parent="a-bXBp3ErzStBLWRxPki-102" vertex="1">
          <mxGeometry y="30" width="140" height="30" as="geometry" />
        </mxCell>
        <mxCell id="a-bXBp3ErzStBLWRxPki-104" value="Chapters" style="text;strokeColor=none;fillColor=none;align=left;verticalAlign=middle;spacingLeft=4;spacingRight=4;overflow=hidden;points=[[0,0.5],[1,0.5]];portConstraint=eastwest;rotatable=0;whiteSpace=wrap;html=1;" parent="a-bXBp3ErzStBLWRxPki-102" vertex="1">
          <mxGeometry y="60" width="140" height="30" as="geometry" />
        </mxCell>
        <mxCell id="a-bXBp3ErzStBLWRxPki-105" value="Chapter" style="swimlane;fontStyle=0;childLayout=stackLayout;horizontal=1;startSize=30;horizontalStack=0;resizeParent=1;resizeParentMax=0;resizeLast=0;collapsible=1;marginBottom=0;whiteSpace=wrap;html=1;" parent="1" vertex="1">
          <mxGeometry x="-2532" y="-1455" width="140" height="90" as="geometry" />
        </mxCell>
        <mxCell id="a-bXBp3ErzStBLWRxPki-106" value="Story" style="text;strokeColor=none;fillColor=none;align=left;verticalAlign=middle;spacingLeft=4;spacingRight=4;overflow=hidden;points=[[0,0.5],[1,0.5]];portConstraint=eastwest;rotatable=0;whiteSpace=wrap;html=1;" parent="a-bXBp3ErzStBLWRxPki-105" vertex="1">
          <mxGeometry y="30" width="140" height="30" as="geometry" />
        </mxCell>
        <mxCell id="a-bXBp3ErzStBLWRxPki-107" value="Comments" style="text;strokeColor=none;fillColor=none;align=left;verticalAlign=middle;spacingLeft=4;spacingRight=4;overflow=hidden;points=[[0,0.5],[1,0.5]];portConstraint=eastwest;rotatable=0;whiteSpace=wrap;html=1;" parent="a-bXBp3ErzStBLWRxPki-105" vertex="1">
          <mxGeometry y="60" width="140" height="30" as="geometry" />
        </mxCell>
        <mxCell id="a-bXBp3ErzStBLWRxPki-108" style="edgeStyle=orthogonalEdgeStyle;rounded=0;orthogonalLoop=1;jettySize=auto;html=1;entryX=1;entryY=0.5;entryDx=0;entryDy=0;startArrow=classic;startFill=1;endArrow=none;endFill=0;exitX=0;exitY=0.5;exitDx=0;exitDy=0;" parent="1" source="a-bXBp3ErzStBLWRxPki-105" target="a-bXBp3ErzStBLWRxPki-94" edge="1">
          <mxGeometry relative="1" as="geometry">
            <mxPoint x="-2702" y="-1380" as="sourcePoint" />
            <Array as="points">
              <mxPoint x="-2802" y="-1410" />
              <mxPoint x="-2802" y="-1395" />
            </Array>
          </mxGeometry>
        </mxCell>
        <mxCell id="a-bXBp3ErzStBLWRxPki-109" style="edgeStyle=orthogonalEdgeStyle;rounded=0;orthogonalLoop=1;jettySize=auto;html=1;entryX=1;entryY=0.5;entryDx=0;entryDy=0;endArrow=none;endFill=0;startArrow=classic;startFill=1;exitX=0;exitY=0.5;exitDx=0;exitDy=0;" parent="1" source="a-bXBp3ErzStBLWRxPki-105" target="a-bXBp3ErzStBLWRxPki-104" edge="1">
          <mxGeometry relative="1" as="geometry">
            <mxPoint x="-2602" y="-1460" as="sourcePoint" />
            <mxPoint x="-2642" y="-1760" as="targetPoint" />
          </mxGeometry>
        </mxCell>
        <mxCell id="a-bXBp3ErzStBLWRxPki-110" style="edgeStyle=orthogonalEdgeStyle;rounded=0;orthogonalLoop=1;jettySize=auto;html=1;entryX=0;entryY=0.5;entryDx=0;entryDy=0;" parent="1" source="a-bXBp3ErzStBLWRxPki-111" target="a-bXBp3ErzStBLWRxPki-102" edge="1">
          <mxGeometry relative="1" as="geometry" />
        </mxCell>
        <mxCell id="a-bXBp3ErzStBLWRxPki-111" value="Collection" style="swimlane;fontStyle=0;childLayout=stackLayout;horizontal=1;startSize=30;horizontalStack=0;resizeParent=1;resizeParentMax=0;resizeLast=0;collapsible=1;marginBottom=0;whiteSpace=wrap;html=1;" parent="1" vertex="1">
          <mxGeometry x="-2972" y="-1380" width="140" height="60" as="geometry" />
        </mxCell>
        <mxCell id="a-bXBp3ErzStBLWRxPki-112" value="Stories" style="text;strokeColor=none;fillColor=none;align=left;verticalAlign=middle;spacingLeft=4;spacingRight=4;overflow=hidden;points=[[0,0.5],[1,0.5]];portConstraint=eastwest;rotatable=0;whiteSpace=wrap;html=1;" parent="a-bXBp3ErzStBLWRxPki-111" vertex="1">
          <mxGeometry y="30" width="140" height="30" as="geometry" />
        </mxCell>
        <mxCell id="a-bXBp3ErzStBLWRxPki-113" style="edgeStyle=orthogonalEdgeStyle;rounded=0;orthogonalLoop=1;jettySize=auto;html=1;entryX=0;entryY=0.5;entryDx=0;entryDy=0;" parent="1" source="a-bXBp3ErzStBLWRxPki-99" target="a-bXBp3ErzStBLWRxPki-111" edge="1">
          <mxGeometry relative="1" as="geometry">
            <mxPoint x="-2942" y="-1330" as="targetPoint" />
          </mxGeometry>
        </mxCell>
        <mxCell id="a-bXBp3ErzStBLWRxPki-114" value="Series" style="swimlane;fontStyle=0;childLayout=stackLayout;horizontal=1;startSize=30;horizontalStack=0;resizeParent=1;resizeParentMax=0;resizeLast=0;collapsible=1;marginBottom=0;whiteSpace=wrap;html=1;" parent="1" vertex="1">
          <mxGeometry x="-2972" y="-1300" width="140" height="60" as="geometry" />
        </mxCell>
        <mxCell id="a-bXBp3ErzStBLWRxPki-115" value="Stories" style="text;strokeColor=none;fillColor=none;align=left;verticalAlign=middle;spacingLeft=4;spacingRight=4;overflow=hidden;points=[[0,0.5],[1,0.5]];portConstraint=eastwest;rotatable=0;whiteSpace=wrap;html=1;" parent="a-bXBp3ErzStBLWRxPki-114" vertex="1">
          <mxGeometry y="30" width="140" height="30" as="geometry" />
        </mxCell>
        <mxCell id="a-bXBp3ErzStBLWRxPki-116" style="edgeStyle=orthogonalEdgeStyle;rounded=0;orthogonalLoop=1;jettySize=auto;html=1;entryX=0;entryY=0.5;entryDx=0;entryDy=0;" parent="1" source="a-bXBp3ErzStBLWRxPki-100" target="a-bXBp3ErzStBLWRxPki-114" edge="1">
          <mxGeometry relative="1" as="geometry">
            <mxPoint x="-3002" y="-1250" as="targetPoint" />
          </mxGeometry>
        </mxCell>
        <mxCell id="a-bXBp3ErzStBLWRxPki-117" style="edgeStyle=orthogonalEdgeStyle;rounded=0;orthogonalLoop=1;jettySize=auto;html=1;entryX=0;entryY=0.5;entryDx=0;entryDy=0;" parent="1" source="a-bXBp3ErzStBLWRxPki-115" target="a-bXBp3ErzStBLWRxPki-103" edge="1">
          <mxGeometry relative="1" as="geometry" />
        </mxCell>
        <mxCell id="a-bXBp3ErzStBLWRxPki-118" value="NavBar" style="swimlane;fontStyle=0;childLayout=stackLayout;horizontal=1;startSize=30;horizontalStack=0;resizeParent=1;resizeParentMax=0;resizeLast=0;collapsible=1;marginBottom=0;whiteSpace=wrap;html=1;" parent="1" vertex="1">
          <mxGeometry x="-3254.2" y="-1220" width="140" height="120" as="geometry" />
        </mxCell>
        <mxCell id="a-bXBp3ErzStBLWRxPki-119" value="Item 1" style="text;strokeColor=none;fillColor=none;align=left;verticalAlign=middle;spacingLeft=4;spacingRight=4;overflow=hidden;points=[[0,0.5],[1,0.5]];portConstraint=eastwest;rotatable=0;whiteSpace=wrap;html=1;" parent="a-bXBp3ErzStBLWRxPki-118" vertex="1">
          <mxGeometry y="30" width="140" height="30" as="geometry" />
        </mxCell>
        <mxCell id="a-bXBp3ErzStBLWRxPki-120" value="Item 2" style="text;strokeColor=none;fillColor=none;align=left;verticalAlign=middle;spacingLeft=4;spacingRight=4;overflow=hidden;points=[[0,0.5],[1,0.5]];portConstraint=eastwest;rotatable=0;whiteSpace=wrap;html=1;" parent="a-bXBp3ErzStBLWRxPki-118" vertex="1">
          <mxGeometry y="60" width="140" height="30" as="geometry" />
        </mxCell>
        <mxCell id="a-bXBp3ErzStBLWRxPki-121" value="Item 3" style="text;strokeColor=none;fillColor=none;align=left;verticalAlign=middle;spacingLeft=4;spacingRight=4;overflow=hidden;points=[[0,0.5],[1,0.5]];portConstraint=eastwest;rotatable=0;whiteSpace=wrap;html=1;" parent="a-bXBp3ErzStBLWRxPki-118" vertex="1">
          <mxGeometry y="90" width="140" height="30" as="geometry" />
        </mxCell>
        <mxCell id="a-bXBp3ErzStBLWRxPki-122" value="Footer" style="swimlane;fontStyle=0;childLayout=stackLayout;horizontal=1;startSize=30;horizontalStack=0;resizeParent=1;resizeParentMax=0;resizeLast=0;collapsible=1;marginBottom=0;whiteSpace=wrap;html=1;" parent="1" vertex="1">
          <mxGeometry x="-3074" y="-1223" width="140" height="120" as="geometry" />
        </mxCell>
        <mxCell id="a-bXBp3ErzStBLWRxPki-123" value="Item 1" style="text;strokeColor=none;fillColor=none;align=left;verticalAlign=middle;spacingLeft=4;spacingRight=4;overflow=hidden;points=[[0,0.5],[1,0.5]];portConstraint=eastwest;rotatable=0;whiteSpace=wrap;html=1;" parent="a-bXBp3ErzStBLWRxPki-122" vertex="1">
          <mxGeometry y="30" width="140" height="30" as="geometry" />
        </mxCell>
        <mxCell id="a-bXBp3ErzStBLWRxPki-124" value="Item 2" style="text;strokeColor=none;fillColor=none;align=left;verticalAlign=middle;spacingLeft=4;spacingRight=4;overflow=hidden;points=[[0,0.5],[1,0.5]];portConstraint=eastwest;rotatable=0;whiteSpace=wrap;html=1;" parent="a-bXBp3ErzStBLWRxPki-122" vertex="1">
          <mxGeometry y="60" width="140" height="30" as="geometry" />
        </mxCell>
        <mxCell id="a-bXBp3ErzStBLWRxPki-125" value="Item 3" style="text;strokeColor=none;fillColor=none;align=left;verticalAlign=middle;spacingLeft=4;spacingRight=4;overflow=hidden;points=[[0,0.5],[1,0.5]];portConstraint=eastwest;rotatable=0;whiteSpace=wrap;html=1;" parent="a-bXBp3ErzStBLWRxPki-122" vertex="1">
          <mxGeometry y="90" width="140" height="30" as="geometry" />
        </mxCell>
        <mxCell id="a-bXBp3ErzStBLWRxPki-126" value="Header" style="swimlane;fontStyle=0;childLayout=stackLayout;horizontal=1;startSize=30;horizontalStack=0;resizeParent=1;resizeParentMax=0;resizeLast=0;collapsible=1;marginBottom=0;whiteSpace=wrap;html=1;" parent="1" vertex="1">
          <mxGeometry x="-2864" y="-1213" width="140" height="120" as="geometry" />
        </mxCell>
        <mxCell id="a-bXBp3ErzStBLWRxPki-127" value="Item 1" style="text;strokeColor=none;fillColor=none;align=left;verticalAlign=middle;spacingLeft=4;spacingRight=4;overflow=hidden;points=[[0,0.5],[1,0.5]];portConstraint=eastwest;rotatable=0;whiteSpace=wrap;html=1;" parent="a-bXBp3ErzStBLWRxPki-126" vertex="1">
          <mxGeometry y="30" width="140" height="30" as="geometry" />
        </mxCell>
        <mxCell id="a-bXBp3ErzStBLWRxPki-128" value="Item 2" style="text;strokeColor=none;fillColor=none;align=left;verticalAlign=middle;spacingLeft=4;spacingRight=4;overflow=hidden;points=[[0,0.5],[1,0.5]];portConstraint=eastwest;rotatable=0;whiteSpace=wrap;html=1;" parent="a-bXBp3ErzStBLWRxPki-126" vertex="1">
          <mxGeometry y="60" width="140" height="30" as="geometry" />
        </mxCell>
        <mxCell id="a-bXBp3ErzStBLWRxPki-129" value="Item 3" style="text;strokeColor=none;fillColor=none;align=left;verticalAlign=middle;spacingLeft=4;spacingRight=4;overflow=hidden;points=[[0,0.5],[1,0.5]];portConstraint=eastwest;rotatable=0;whiteSpace=wrap;html=1;" parent="a-bXBp3ErzStBLWRxPki-126" vertex="1">
          <mxGeometry y="90" width="140" height="30" as="geometry" />
        </mxCell>
        <mxCell id="wQ4v75rZvoAH9JfsPWcH-13" style="edgeStyle=orthogonalEdgeStyle;rounded=0;orthogonalLoop=1;jettySize=auto;html=1;entryX=1;entryY=0.5;entryDx=0;entryDy=0;startArrow=classic;startFill=1;endArrow=none;endFill=0;exitX=0;exitY=0.5;exitDx=0;exitDy=0;" edge="1" parent="1" source="wQ4v75rZvoAH9JfsPWcH-1" target="wQ4v75rZvoAH9JfsPWcH-12">
          <mxGeometry relative="1" as="geometry">
            <mxPoint x="-2010" y="-1040" as="sourcePoint" />
          </mxGeometry>
        </mxCell>
        <mxCell id="wQ4v75rZvoAH9JfsPWcH-1" value="AdminUserPagesTypes" style="swimlane;fontStyle=0;childLayout=stackLayout;horizontal=1;startSize=30;horizontalStack=0;resizeParent=1;resizeParentMax=0;resizeLast=0;collapsible=1;marginBottom=0;whiteSpace=wrap;html=1;" vertex="1" parent="1">
          <mxGeometry x="-1840.2" y="-1070" width="170" height="90" as="geometry" />
        </mxCell>
        <mxCell id="wQ4v75rZvoAH9JfsPWcH-5" value="Account Management" style="text;strokeColor=none;fillColor=none;align=left;verticalAlign=middle;spacingLeft=4;spacingRight=4;overflow=hidden;points=[[0,0.5],[1,0.5]];portConstraint=eastwest;rotatable=0;whiteSpace=wrap;html=1;" vertex="1" parent="wQ4v75rZvoAH9JfsPWcH-1">
          <mxGeometry y="30" width="170" height="30" as="geometry" />
        </mxCell>
        <mxCell id="wQ4v75rZvoAH9JfsPWcH-6" value="Role Management" style="text;strokeColor=none;fillColor=none;align=left;verticalAlign=middle;spacingLeft=4;spacingRight=4;overflow=hidden;points=[[0,0.5],[1,0.5]];portConstraint=eastwest;rotatable=0;whiteSpace=wrap;html=1;" vertex="1" parent="wQ4v75rZvoAH9JfsPWcH-1">
          <mxGeometry y="60" width="170" height="30" as="geometry" />
        </mxCell>
        <mxCell id="wQ4v75rZvoAH9JfsPWcH-7" value="Roles" style="swimlane;fontStyle=0;childLayout=stackLayout;horizontal=1;startSize=30;horizontalStack=0;resizeParent=1;resizeParentMax=0;resizeLast=0;collapsible=1;marginBottom=0;whiteSpace=wrap;html=1;fillStyle=solid;fillColor=#18141D;swimlaneLine=1;strokeColor=default;" vertex="1" parent="1">
          <mxGeometry x="-2220" y="-1320" width="140" height="180" as="geometry">
            <mxRectangle x="940" y="-440" width="60" height="30" as="alternateBounds" />
          </mxGeometry>
        </mxCell>
        <mxCell id="wQ4v75rZvoAH9JfsPWcH-8" value="Default User" style="text;strokeColor=none;fillColor=default;align=left;verticalAlign=middle;spacingLeft=4;spacingRight=4;overflow=hidden;points=[[0,0.5],[1,0.5]];portConstraint=eastwest;rotatable=0;whiteSpace=wrap;html=1;" vertex="1" parent="wQ4v75rZvoAH9JfsPWcH-7">
          <mxGeometry y="30" width="140" height="30" as="geometry" />
        </mxCell>
        <mxCell id="wQ4v75rZvoAH9JfsPWcH-9" value="Special Contributer" style="text;strokeColor=none;fillColor=default;align=left;verticalAlign=middle;spacingLeft=4;spacingRight=4;overflow=hidden;points=[[0,0.5],[1,0.5]];portConstraint=eastwest;rotatable=0;whiteSpace=wrap;html=1;" vertex="1" parent="wQ4v75rZvoAH9JfsPWcH-7">
          <mxGeometry y="60" width="140" height="30" as="geometry" />
        </mxCell>
        <mxCell id="wQ4v75rZvoAH9JfsPWcH-10" value="Editor" style="text;strokeColor=none;fillColor=default;align=left;verticalAlign=middle;spacingLeft=4;spacingRight=4;overflow=hidden;points=[[0,0.5],[1,0.5]];portConstraint=eastwest;rotatable=0;whiteSpace=wrap;html=1;" vertex="1" parent="wQ4v75rZvoAH9JfsPWcH-7">
          <mxGeometry y="90" width="140" height="30" as="geometry" />
        </mxCell>
        <mxCell id="wQ4v75rZvoAH9JfsPWcH-11" value="Author" style="text;strokeColor=none;fillColor=default;align=left;verticalAlign=middle;spacingLeft=4;spacingRight=4;overflow=hidden;points=[[0,0.5],[1,0.5]];portConstraint=eastwest;rotatable=0;whiteSpace=wrap;html=1;" vertex="1" parent="wQ4v75rZvoAH9JfsPWcH-7">
          <mxGeometry y="120" width="140" height="30" as="geometry" />
        </mxCell>
        <mxCell id="wQ4v75rZvoAH9JfsPWcH-12" value="Site Admin" style="text;strokeColor=none;fillColor=default;align=left;verticalAlign=middle;spacingLeft=4;spacingRight=4;overflow=hidden;points=[[0,0.5],[1,0.5]];portConstraint=eastwest;rotatable=0;whiteSpace=wrap;html=1;" vertex="1" parent="wQ4v75rZvoAH9JfsPWcH-7">
          <mxGeometry y="150" width="140" height="30" as="geometry" />
        </mxCell>
        <mxCell id="wQ4v75rZvoAH9JfsPWcH-14" style="edgeStyle=orthogonalEdgeStyle;rounded=0;orthogonalLoop=1;jettySize=auto;html=1;entryX=0;entryY=0.5;entryDx=0;entryDy=0;" edge="1" parent="1" source="wQ4v75rZvoAH9JfsPWcH-11" target="a-bXBp3ErzStBLWRxPki-72">
          <mxGeometry relative="1" as="geometry">
            <Array as="points">
              <mxPoint x="-1940" y="-1185" />
              <mxPoint x="-1940" y="-1153" />
            </Array>
          </mxGeometry>
        </mxCell>
        <mxCell id="wQ4v75rZvoAH9JfsPWcH-15" value="SpecialContributerUserPageTypes" style="swimlane;fontStyle=0;childLayout=stackLayout;horizontal=1;startSize=30;horizontalStack=0;resizeParent=1;resizeParentMax=0;resizeLast=0;collapsible=1;marginBottom=0;whiteSpace=wrap;html=1;" vertex="1" parent="1">
          <mxGeometry x="-1840.2" y="-1370" width="250" height="60" as="geometry" />
        </mxCell>
        <mxCell id="wQ4v75rZvoAH9JfsPWcH-16" value="Account Management" style="text;strokeColor=none;fillColor=none;align=left;verticalAlign=middle;spacingLeft=4;spacingRight=4;overflow=hidden;points=[[0,0.5],[1,0.5]];portConstraint=eastwest;rotatable=0;whiteSpace=wrap;html=1;" vertex="1" parent="wQ4v75rZvoAH9JfsPWcH-15">
          <mxGeometry y="30" width="250" height="30" as="geometry" />
        </mxCell>
        <mxCell id="wQ4v75rZvoAH9JfsPWcH-17" style="edgeStyle=orthogonalEdgeStyle;rounded=0;orthogonalLoop=1;jettySize=auto;html=1;entryX=0;entryY=0.5;entryDx=0;entryDy=0;" edge="1" parent="1" source="wQ4v75rZvoAH9JfsPWcH-9" target="wQ4v75rZvoAH9JfsPWcH-15">
          <mxGeometry relative="1" as="geometry">
            <mxPoint x="-2310" y="-970" as="targetPoint" />
            <Array as="points">
              <mxPoint x="-1940" y="-1245" />
              <mxPoint x="-1940" y="-1350" />
            </Array>
          </mxGeometry>
        </mxCell>
        <mxCell id="wQ4v75rZvoAH9JfsPWcH-18" style="edgeStyle=orthogonalEdgeStyle;rounded=0;orthogonalLoop=1;jettySize=auto;html=1;entryX=0;entryY=0.5;entryDx=0;entryDy=0;" edge="1" parent="1" source="wQ4v75rZvoAH9JfsPWcH-10" target="a-bXBp3ErzStBLWRxPki-70">
          <mxGeometry relative="1" as="geometry">
            <mxPoint x="-2340" y="-1060" as="targetPoint" />
            <Array as="points">
              <mxPoint x="-1920" y="-1215" />
              <mxPoint x="-1920" y="-1260" />
            </Array>
          </mxGeometry>
        </mxCell>
        <mxCell id="wQ4v75rZvoAH9JfsPWcH-19" style="edgeStyle=orthogonalEdgeStyle;rounded=0;orthogonalLoop=1;jettySize=auto;html=1;entryX=0;entryY=0.5;entryDx=0;entryDy=0;" edge="1" parent="1" source="wQ4v75rZvoAH9JfsPWcH-8" target="a-bXBp3ErzStBLWRxPki-66">
          <mxGeometry relative="1" as="geometry">
            <mxPoint x="-2320" y="-1110" as="targetPoint" />
          </mxGeometry>
        </mxCell>
        <mxCell id="wQ4v75rZvoAH9JfsPWcH-25" value="&lt;h1&gt;&lt;b&gt;&lt;u&gt;Author Site Back End&lt;/u&gt;&lt;/b&gt;&lt;/h1&gt;" style="rounded=0;whiteSpace=wrap;html=1;fillColor=none;verticalAlign=top;" vertex="1" parent="1">
          <mxGeometry x="-2280.2" y="-1560" width="940.2" height="610" as="geometry" />
        </mxCell>
        <mxCell id="wQ4v75rZvoAH9JfsPWcH-26" value="&lt;h1&gt;&lt;u&gt;Django Admin Portal&lt;/u&gt;&lt;/h1&gt;" style="rounded=0;whiteSpace=wrap;html=1;fillColor=none;verticalAlign=top;" vertex="1" parent="1">
          <mxGeometry x="-2280.2" y="-830" width="950.2" height="460" as="geometry" />
        </mxCell>
        <mxCell id="wQ4v75rZvoAH9JfsPWcH-27" value="Roles" style="swimlane;fontStyle=0;childLayout=stackLayout;horizontal=1;startSize=30;horizontalStack=0;resizeParent=1;resizeParentMax=0;resizeLast=0;collapsible=1;marginBottom=0;whiteSpace=wrap;html=1;" vertex="1" parent="1">
          <mxGeometry x="-2250" y="-710" width="140" height="90" as="geometry" />
        </mxCell>
        <mxCell id="wQ4v75rZvoAH9JfsPWcH-30" value="Super Admin" style="text;strokeColor=none;fillColor=none;align=left;verticalAlign=middle;spacingLeft=4;spacingRight=4;overflow=hidden;points=[[0,0.5],[1,0.5]];portConstraint=eastwest;rotatable=0;whiteSpace=wrap;html=1;" vertex="1" parent="wQ4v75rZvoAH9JfsPWcH-27">
          <mxGeometry y="30" width="140" height="30" as="geometry" />
        </mxCell>
        <mxCell id="wQ4v75rZvoAH9JfsPWcH-31" value="Admin" style="text;strokeColor=none;fillColor=none;align=left;verticalAlign=middle;spacingLeft=4;spacingRight=4;overflow=hidden;points=[[0,0.5],[1,0.5]];portConstraint=eastwest;rotatable=0;whiteSpace=wrap;html=1;" vertex="1" parent="wQ4v75rZvoAH9JfsPWcH-27">
          <mxGeometry y="60" width="140" height="30" as="geometry" />
        </mxCell>
        <mxCell id="wQ4v75rZvoAH9JfsPWcH-32" value="Manage Users" style="swimlane;fontStyle=0;childLayout=stackLayout;horizontal=1;startSize=30;horizontalStack=0;resizeParent=1;resizeParentMax=0;resizeLast=0;collapsible=1;marginBottom=0;whiteSpace=wrap;html=1;" vertex="1" parent="1">
          <mxGeometry x="-2020" y="-720" width="140" height="120" as="geometry" />
        </mxCell>
        <mxCell id="wQ4v75rZvoAH9JfsPWcH-33" value="Item 1" style="text;strokeColor=none;fillColor=none;align=left;verticalAlign=middle;spacingLeft=4;spacingRight=4;overflow=hidden;points=[[0,0.5],[1,0.5]];portConstraint=eastwest;rotatable=0;whiteSpace=wrap;html=1;" vertex="1" parent="wQ4v75rZvoAH9JfsPWcH-32">
          <mxGeometry y="30" width="140" height="30" as="geometry" />
        </mxCell>
        <mxCell id="wQ4v75rZvoAH9JfsPWcH-34" value="Item 2" style="text;strokeColor=none;fillColor=none;align=left;verticalAlign=middle;spacingLeft=4;spacingRight=4;overflow=hidden;points=[[0,0.5],[1,0.5]];portConstraint=eastwest;rotatable=0;whiteSpace=wrap;html=1;" vertex="1" parent="wQ4v75rZvoAH9JfsPWcH-32">
          <mxGeometry y="60" width="140" height="30" as="geometry" />
        </mxCell>
        <mxCell id="wQ4v75rZvoAH9JfsPWcH-35" value="Item 3" style="text;strokeColor=none;fillColor=none;align=left;verticalAlign=middle;spacingLeft=4;spacingRight=4;overflow=hidden;points=[[0,0.5],[1,0.5]];portConstraint=eastwest;rotatable=0;whiteSpace=wrap;html=1;" vertex="1" parent="wQ4v75rZvoAH9JfsPWcH-32">
          <mxGeometry y="90" width="140" height="30" as="geometry" />
        </mxCell>
        <mxCell id="wQ4v75rZvoAH9JfsPWcH-36" value="User Managerment" style="swimlane;fontStyle=0;childLayout=stackLayout;horizontal=1;startSize=30;horizontalStack=0;resizeParent=1;resizeParentMax=0;resizeLast=0;collapsible=1;marginBottom=0;whiteSpace=wrap;html=1;" vertex="1" parent="1">
          <mxGeometry x="-1540" y="-1123" width="140" height="120" as="geometry" />
        </mxCell>
        <mxCell id="wQ4v75rZvoAH9JfsPWcH-37" value="Item 1" style="text;strokeColor=none;fillColor=none;align=left;verticalAlign=middle;spacingLeft=4;spacingRight=4;overflow=hidden;points=[[0,0.5],[1,0.5]];portConstraint=eastwest;rotatable=0;whiteSpace=wrap;html=1;" vertex="1" parent="wQ4v75rZvoAH9JfsPWcH-36">
          <mxGeometry y="30" width="140" height="30" as="geometry" />
        </mxCell>
        <mxCell id="wQ4v75rZvoAH9JfsPWcH-38" value="Item 2" style="text;strokeColor=none;fillColor=none;align=left;verticalAlign=middle;spacingLeft=4;spacingRight=4;overflow=hidden;points=[[0,0.5],[1,0.5]];portConstraint=eastwest;rotatable=0;whiteSpace=wrap;html=1;" vertex="1" parent="wQ4v75rZvoAH9JfsPWcH-36">
          <mxGeometry y="60" width="140" height="30" as="geometry" />
        </mxCell>
        <mxCell id="wQ4v75rZvoAH9JfsPWcH-39" value="Item 3" style="text;strokeColor=none;fillColor=none;align=left;verticalAlign=middle;spacingLeft=4;spacingRight=4;overflow=hidden;points=[[0,0.5],[1,0.5]];portConstraint=eastwest;rotatable=0;whiteSpace=wrap;html=1;" vertex="1" parent="wQ4v75rZvoAH9JfsPWcH-36">
          <mxGeometry y="90" width="140" height="30" as="geometry" />
        </mxCell>
      </root>
    </mxGraphModel>
  </diagram>
</mxfile>
